<?xml version="1.0" encoding="UTF-8"?>
<svg xmlns="http://www.w3.org/2000/svg" version="1.1" viewBox="0 0 800 800">
  <!-- Generator: Adobe Illustrator 28.7.1, SVG Export Plug-In . SVG Version: 1.2.0 Build 142)  -->
  <g>
    <g id="Layer_1" focusable="false">
      <path d="M581,331.7c-43.1,0-61.2,39.1-64,67.4h121.3c.6-25.5-10.8-67.4-57.2-67.4ZM272.2,239.9h-1.1c-5.7,22.1-11.3,48.7-18.1,71.4l-29.5,94.1h98l-30-94.1c-7.4-23.2-13.6-49.3-19.3-71.4ZM0,0v800h800V0S0,0,0,0ZM368,566.3l-34.6-108.2h-121.2l-32.9,108.2h-72l122.4-381.9h88.9l124.1,381.9h-74.8ZM701.7,447.9h-184.7c1.7,49.9,40.8,71.4,85,71.4s55.5-4.5,76.5-12.5l10.2,48.2c-23.8,9.6-56.6,17-96.3,17-89.5,0-142.2-55-142.2-139.4s46.5-148.4,134.9-148.4,119,73.7,119,134.3c0,13-1.1,23.2-2.3,29.5h0Z"/>
    </g>
  </g>
</svg>