<?xml version="1.0" encoding="UTF-8"?>
<svg xmlns="http://www.w3.org/2000/svg" version="1.1" viewBox="0 0 800 800">
  <!-- Generator: Adobe Illustrator 28.7.1, SVG Export Plug-In . SVG Version: 1.2.0 Build 142)  -->
  <g>
    <g id="Layer_1">
      <path d="M784.8,364.3L435.6,15.1c-9.3-9.3-22.2-15.1-36.5-15.1s-27.1,5.8-36.5,15.1h0l-72.4,72.5,92,92c5.9-2.1,12.6-3.2,19.7-3.2,33.8,0,61.3,27.4,61.3,61.3s-1.2,14-3.5,20.4v-.4c.1,0,88.7,88.7,88.7,88.7,5.9-2.1,12.8-3.3,19.9-3.3,33.8,0,61.2,27.4,61.2,61.2s-27.4,61.2-61.2,61.2-61.2-27.4-61.2-61.2,1.7-16.3,4.7-23.6l-.2.4-83-82.5v217.5c20.4,10.3,34.1,31,34.1,55,0,33.9-27.5,61.3-61.3,61.3s-61.3-27.5-61.3-61.3,6.8-32.2,17.9-43.3h0c5.6-5.6,12.3-10.2,19.8-13.4l.4-.2v-219.6c-22.5-9.4-37.9-31.3-37.9-56.7s1.7-16.6,4.9-24l-.2.4-90.4-90.8L15,362.7C5.7,372.1,0,385,0,399.2s5.7,27.1,15,36.5l349.3,349.2c9.3,9.3,22.2,15.1,36.4,15.1s27.1-5.8,36.4-15.1l347.7-347.7c9.3-9.3,15.1-22.2,15.1-36.4s-5.8-27.1-15.1-36.4h0Z"/>
    </g>
  </g>
</svg>