<?xml version="1.0" encoding="UTF-8"?>
<svg xmlns="http://www.w3.org/2000/svg" version="1.1" viewBox="0 0 800 800">
  <!-- Generator: Adobe Illustrator 28.7.1, SVG Export Plug-In . SVG Version: 1.2.0 Build 142)  -->
  <g>
    <g id="Layer_1" focusable="false">
      <path d="M0,0v800h800V0H0ZM421.9,602.8l-34-106.3h-119.1l-32.3,106.3h-70.7l120.2-375.2h87.4l121.9,375.2h-73.5ZM600.1,602.8h-69.1v-271.1h69.1v271.1ZM565.1,292.7c-22.8,0-37.8-16.1-37.8-36.7s15.6-37.3,38.4-37.3,37.8,16.1,38.4,37.3c0,20.6-15,36.8-39,36.8ZM327.9,282.1h-1.1c-5.6,21.7-11.1,47.9-17.8,70.1l-28.9,92.4h96.3l-29.5-92.4c-7.2-22.8-13.4-48.4-18.9-70.1h0Z"/>
    </g>
  </g>
</svg>