<?xml version="1.0" encoding="UTF-8"?>
<svg xmlns="http://www.w3.org/2000/svg" version="1.1" viewBox="0 0 800 800">
  <!-- Generator: Adobe Illustrator 28.7.1, SVG Export Plug-In . SVG Version: 1.2.0 Build 142)  -->
  <g>
    <g id="katman_1">
      <g>
        <path d="M117.2,276.7h53.8v179.6c.4,15.1-3.4,30.1-11.1,43.2-7.4,12.2-18.1,22-30.9,28.3-14.3,6.9-30,10.3-45.9,10-14.5.2-28.9-2.6-42.2-8.3-12.2-5.2-22.6-14-29.9-25.1-7.4-11.2-11.1-25.4-11.1-42.5h54.2c.2,10.2,3.1,18.2,8.9,23.8,6.1,5.8,14.4,8.9,22.8,8.5,20.7,0,31.1-12.6,31.3-37.8v-179.6h0Z"/>
        <path d="M290.5,538c-19.5,0-36.4-4.2-50.6-12.5-14.1-8.2-25.5-20.4-32.9-35-8-16.2-12-34.1-11.6-52.1-.4-18.1,3.6-36.1,11.6-52.4,7.4-14.6,18.8-26.7,32.9-35,15.4-8.6,32.9-13,50.6-12.5,17.7-.5,35.2,3.9,50.6,12.5,14.1,8.2,25.5,20.4,32.9,35,8,16.3,12,34.2,11.6,52.4.4,18.1-3.6,35.9-11.6,52.1-7.3,14.6-18.8,26.7-32.9,35-14.2,8.4-31.1,12.5-50.6,12.5ZM351.7,276.7v29h-122.5v-29h122.5ZM290.8,496.5c12.3.5,24-5.9,30.1-16.6,6.8-11.1,10.2-25,10.2-41.9s-3.4-30.8-10.3-41.9c-6.2-10.7-17.8-17.1-30.1-16.6-12.4-.5-24.1,5.9-30.4,16.6-6.9,11.1-10.3,25-10.3,41.9s3.4,30.8,10.3,41.9c6.3,10.7,18,17.1,30.4,16.6h.1Z"/>
        <path d="M515.4,341.1v40.3h-36.3v93.7c0,7.4,1.7,12.4,5,14.9,3.8,2.7,8.4,4.1,13.1,3.9,2.5,0,5-.2,7.5-.7l5.8-1.1,8.3,39.9c-2.8.8-6.4,1.8-11.3,2.9-5.8,1.3-11.8,1.9-17.7,2.1-19.5.9-35.1-3.3-46.8-12.6-11.8-9.3-17.6-23.4-17.4-42.4v-100.6h-26.4v-40.3h26.4v-46.3h53.6v46.3h36.3Z"/>
        <path d="M597.5,537.9c-18.4,0-33.7-4.8-45.9-14.5-12.1-9.6-18.2-24-18.2-43.1s3.4-25.7,10.2-33.9c7-8.4,16.3-14.7,26.7-18.1,11.5-3.9,23.4-6.4,35.5-7.5,12.1-1,24.1-2.7,36-5.3,7.2-1.8,10.8-5.9,10.8-12.1v-.8c.4-7-2.3-13.8-7.5-18.5-5-4.3-12.1-6.5-21.2-6.5-8.1-.4-16.2,1.8-23,6.3-5.5,3.9-9.5,9.5-11.3,16l-49.5-4c3.3-17,13.2-32.1,27.5-41.9,14.6-10.3,33.5-15.4,56.7-15.5,13.7-.1,27.3,2.2,40.2,6.8,11.9,4.1,22.4,11.4,30.3,21.2,7.7,9.6,11.5,22.1,11.5,37.4v130.3h-50.8v-26.8h-1.5c-4.9,9.1-12.2,16.7-21.1,21.9-9.4,5.6-21.1,8.5-35.3,8.5ZM612.9,500.9c10.6.4,21-3.2,28.9-10.2,7.3-6.4,11.5-15.7,11.3-25.5v-20.5c-3,1.8-6.3,3.1-9.7,3.8-4.4,1.1-9.1,2-14.1,2.8s-9.4,1.5-13.4,2.1c-8.1.9-15.8,3.6-22.7,7.9-5.7,3.8-9,10.4-8.6,17.2-.3,6.5,2.7,12.8,8,16.6,6,4,13,6.1,20.2,5.8h0Z"/>
        <path d="M770.9,316.2c-7.6.1-14.9-2.7-20.4-8-5.5-4.8-8.6-11.8-8.6-19.2,0-7.3,3.1-14.3,8.6-19.1,11.6-10.5,29.3-10.5,40.9,0,5.5,4.8,8.6,11.8,8.6,19.1,0,7.3-3.1,14.3-8.6,19.2-5.5,5.3-12.9,8.1-20.5,8ZM744.1,534.2v-193.1h53.6v193.1h-53.6Z"/>
      </g>
    </g>
  </g>
</svg>