<?xml version="1.0" encoding="UTF-8"?>
<svg xmlns="http://www.w3.org/2000/svg" version="1.1" viewBox="0 0 800 800">
  <!-- Generator: Adobe Illustrator 28.7.1, SVG Export Plug-In . SVG Version: 1.2.0 Build 142)  -->
  <g>
    <g id="Layer_1">
      <path d="M355,565.7c14.7.7,29.7,1.1,44.8,1.1s30.5-.3,45.3-1.1c-14.9,19.2-29.5,36.2-45.1,52.4l.2-.2c-15.4-16-30.3-33-44.3-50.7l-1.1-1.4ZM203,544.3c28.9,7.3,64.1,13.6,100.1,17.4l3.5.3c22,30.2,44.3,56.8,68.1,81.8l-.3-.3c-35,39-82.2,66.4-135.5,76.3l-1.5.2h-.3c-6.6,0-12.9-1.6-18.3-4.5h.2c-22.2-12.6-31.8-61-24.3-123.3,1.8-15.3,4.7-31.5,8.3-47.9h0ZM597.3,544c3.1,12.6,6.1,28.8,8.2,45.1l.2,2.3c7.7,62.3-1.8,110.7-23.8,123.6-4.9,2.7-10.8,4.3-17,4.3s-1.2,0-1.8,0h0c-54.8-10-101.9-37.2-136.8-75.8l-.2-.2c23.4-24.6,45.5-51.2,65.8-79.1l1.5-2.2c39.4-4.1,74.7-10.5,109-19.1l-5.3,1.1h0ZM234.2,444.4c6.7,13.1,13.7,26.1,21.3,39.2,7.7,13,15.5,25.7,23.5,38.1-23.2-3.4-45.5-7.7-66.9-12.9,6-21,13.5-42.7,22-64.4h0ZM565.7,443.8c8.8,21.9,16.3,43.7,22.5,64.9-21.3,5.2-43.9,9.7-67.2,13,8-12.5,16-25.4,23.5-38.6,7.5-13,14.5-26.3,21.2-39.3h0ZM176.4,301.1c11.6,39.4,24.1,72.4,38.7,104.2l-2-4.9c-12.4,26.8-24.7,59.6-34.8,93.3l-1.4,5.5c-18.8-5.8-34-11.5-48.7-17.8l3.1,1.2c-57.7-24.6-95.1-56.9-95.1-82.5s37.3-58.1,95.1-82.5c14-6,29.3-11.4,45.2-16.5h0ZM622.9,301c16.1,5,31.5,10.6,45.8,16.6,57.7,24.7,95.1,56.9,95.1,82.5-.2,25.6-37.5,58-95.2,82.5-14,6-29.3,11.4-45.2,16.4-11.7-39.6-24.2-72.5-38.7-104.3l2,5c12.4-26.8,24.7-59.6,34.8-93.3l1.4-5.5h0ZM520.8,278.5c23.2,3.4,45.5,7.7,66.9,12.9-6,21.1-13.5,42.7-22,64.4-6.7-13-13.7-26.1-21.3-39.1-7.5-13.1-15.5-25.8-23.5-38.2h0ZM278.8,278.5c-8,12.6-16,25.4-23.5,38.7-7.5,13-14.5,26.1-21.2,39.1-8.8-21.9-16.3-43.7-22.5-64.9,21.3-5,43.8-9.4,67.2-12.9h0ZM400,270c24.7,0,49.2,1.1,73.4,3.1,13.5,19.4,26.7,40.1,39.4,62,12.4,21.3,23.7,43,33.9,64.9-10.3,21.8-21.5,43.7-33.8,65-12.7,22-25.8,42.9-39.3,62.3-24.3,2.1-48.9,3.3-73.7,3.3s-49.2-1.2-73.4-3.1c-13.5-19.4-26.7-40.1-39.4-62-12.4-21.3-23.7-43-33.9-64.9,10.1-21.9,21.5-43.8,33.8-65.1,12.7-22,25.8-42.9,39.3-62.3,24.3-2.1,48.9-3.3,73.7-3.3h0ZM399.5,182.5c15.5,16,30.3,33,44.3,50.7l1.1,1.4c-14.7-.7-29.7-1.1-44.8-1.1s-30.5.3-45.3,1.1c14.8-19.2,29.5-36.2,45.1-52.4l-.2.2h0ZM236.8,80.8c54.8,10,101.9,37.3,136.8,75.8l.2.2c-23.4,24.6-45.5,51.2-65.8,79.2l-1.5,2.2c-39.3,4.1-74.6,10.4-109,19l5.2-1.1c-3.7-16.3-6.5-32.1-8.5-47.3-7.7-62.3,1.8-110.7,23.8-123.6,5.5-2.6,11.9-4.2,18.7-4.4h0,0ZM562.4,80.1v.2c.3,0,.7,0,1.2,0,6.4,0,12.4,1.6,17.7,4.3h-.2c22.2,12.6,31.8,61.1,24.3,123.4-1.8,15.3-4.7,31.5-8.3,48-28.9-7.4-64.2-13.7-100.1-17.5l-3.4-.3c-22-30.2-44.3-56.8-68.2-81.9l.3.3c35-38.9,82.1-66.4,135.3-76.3l1.5-.2h0ZM562.6,43.8c-65.1,9.9-121.5,41.5-162.7,87.2l-.2.2c-41.5-45.6-97.9-77-161.4-86.6l-1.5-.2h-1.2c-13.1,0-25.4,3.4-36,9.5l.4-.2c-45.8,26.4-56.1,108.8-32.4,212.2C66,297.3,0,347.3,0,400.1s66.3,103.2,168.1,134.3c-23.5,103.8-13,186.3,32.9,212.7,10.1,5.8,22.2,9.2,35.1,9.2s1.2,0,1.7,0h0c65.1-9.9,121.5-41.6,162.7-87.2l.2-.2c41.5,45.6,97.9,77.1,161.4,86.6l1.5.2h1.4c13,0,25.3-3.4,35.8-9.4l-.4.2c45.8-26.4,56.1-108.8,32.4-212.2,101.1-31.1,167.1-81.3,167.1-134.1s-66.3-103.2-168.1-134.4c23.5-103.7,13-186.2-32.9-212.7-10.2-5.8-22.4-9.3-35.4-9.3h-1,.1ZM474.3,400.1c0,41.2-33.4,74.5-74.5,74.5s-74.5-33.4-74.5-74.5,33.4-74.5,74.5-74.5,39.2,8.3,52.7,21.8h0c13.5,13.5,21.8,32.1,21.8,52.7h0Z"/>
    </g>
  </g>
</svg>