<?xml version="1.0" encoding="UTF-8"?>
<svg xmlns="http://www.w3.org/2000/svg" version="1.1" viewBox="0 0 800 800">
  <!-- Generator: Adobe Illustrator 28.7.1, SVG Export Plug-In . SVG Version: 1.2.0 Build 142)  -->
  <g>
    <g id="Layer_1">
      <path d="M200.5,332.7c26.6-106.4,93.1-159.6,199.5-159.6,159.6,0,179.6,119.7,259.4,139.7,53.2,13.3,99.8-6.7,139.7-59.9-26.6,106.4-93.1,159.6-199.5,159.6-159.6,0-179.6-119.7-259.4-139.7-53.2-13.3-99.8,6.7-139.7,59.9ZM.9,572.1c26.6-106.4,93.1-159.6,199.5-159.6,159.6,0,179.6,119.7,259.4,139.7,53.2,13.3,99.8-6.7,139.7-59.9-26.6,106.4-93.1,159.6-199.5,159.6-159.6,0-179.6-119.7-259.4-139.7-53.2-13.3-99.8,6.7-139.7,59.9Z"/>
    </g>
  </g>
</svg>